<?xml version="1.0" encoding="UTF-8" standalone="no"?>
<!DOCTYPE svg PUBLIC "-//W3C//DTD SVG 1.1//EN"
 "http://www.w3.org/Graphics/SVG/1.1/DTD/svg11.dtd">
<!-- Generated by graphviz version 2.38.0 (20140413.2041)
 -->
<!-- Title: trie Pages: 1 -->
<svg width="285pt" height="288pt"
 viewBox="0.00 0.00 284.80 287.88" xmlns="http://www.w3.org/2000/svg" xmlns:xlink="http://www.w3.org/1999/xlink">
<g id="graph0" class="graph" transform="scale(1 1) rotate(0) translate(4 283.879)">
<title>trie</title>
<polygon fill="white" stroke="none" points="-4,4 -4,-283.879 280.8,-283.879 280.8,4 -4,4"/>
<!-- 0x7ffd05de1080 -->
<g id="node1" class="node"><title>0x7ffd05de1080</title>
<ellipse fill="black" stroke="black" cx="77.8" cy="-274.8" rx="1.8" ry="1.8"/>
</g>
<!-- 0x7ffd05de1080&#45;&gt;0x7ffd05de1080 -->
<g id="edge1" class="edge"><title>0x7ffd05de1080&#45;&gt;0x7ffd05de1080</title>
<path fill="none" stroke="#2bbef0" stroke-dasharray="5,2" d="M79.4583,-276.204C86.3819,-281.26 97.6,-280.792 97.6,-274.8 97.6,-271.242 93.6452,-269.632 88.9827,-269.969"/>
<polygon fill="#2bbef0" stroke="#2bbef0" points="79.4583,-273.396 87.3443,-265.776 84.163,-271.703 88.8678,-270.01 88.8678,-270.01 88.8678,-270.01 84.163,-271.703 90.3913,-274.244 79.4583,-273.396 79.4583,-273.396"/>
</g>
<!-- 0x1f71c20 -->
<g id="node2" class="node"><title>0x1f71c20</title>
<ellipse fill="black" stroke="black" cx="110.8" cy="-220.2" rx="1.8" ry="1.8"/>
</g>
<!-- 0x7ffd05de1080&#45;&gt;0x1f71c20 -->
<g id="edge2" class="edge"><title>0x7ffd05de1080&#45;&gt;0x1f71c20</title>
<path fill="none" stroke="black" d="M78.3728,-272.887C81.4657,-267.957 96.3468,-244.238 104.835,-230.708"/>
<polygon fill="black" stroke="black" points="110.311,-221.979 108.809,-232.842 107.654,-226.215 104.997,-230.45 104.997,-230.45 104.997,-230.45 107.654,-226.215 101.185,-228.059 110.311,-221.979 110.311,-221.979"/>
<text text-anchor="middle" x="103.8" y="-243.8" font-family="Times,serif" font-size="14.00"> a</text>
</g>
<!-- 0x1f72010 -->
<g id="node3" class="node"><title>0x1f72010</title>
<ellipse fill="black" stroke="black" cx="1.8" cy="-220.2" rx="1.8" ry="1.8"/>
</g>
<!-- 0x7ffd05de1080&#45;&gt;0x1f72010 -->
<g id="edge3" class="edge"><title>0x7ffd05de1080&#45;&gt;0x1f72010</title>
<path fill="none" stroke="black" d="M76.4012,-273.587C70.0743,-272.565 43.7096,-267.684 26.8,-255 18.3192,-248.639 11.4141,-238.615 7.02672,-231.133"/>
<polygon fill="black" stroke="black" points="2.26115,-222.192 10.9362,-228.9 4.61316,-226.605 6.96516,-231.017 6.96516,-231.017 6.96516,-231.017 4.61316,-226.605 2.99411,-233.134 2.26115,-222.192 2.26115,-222.192"/>
<text text-anchor="middle" x="32.3" y="-243.8" font-family="Times,serif" font-size="14.00"> b</text>
</g>
<!-- 0x1f71c20&#45;&gt;0x7ffd05de1080 -->
<g id="edge4" class="edge"><title>0x1f71c20&#45;&gt;0x7ffd05de1080</title>
<path fill="none" stroke="#2bbef0" stroke-dasharray="5,2" d="M109.963,-221.824C107.073,-224.016 97.3907,-231.681 91.8,-240 86.9643,-247.196 83.3051,-256.328 80.9427,-263.285"/>
<polygon fill="#2bbef0" stroke="#2bbef0" points="78.0296,-272.901 76.6221,-262.026 79.4792,-268.116 80.9289,-263.331 80.9289,-263.331 80.9289,-263.331 79.4792,-268.116 85.2356,-264.635 78.0296,-272.901 78.0296,-272.901"/>
</g>
<!-- 0x1f71d10 -->
<g id="node4" class="node"><title>0x1f71d10</title>
<ellipse fill="black" stroke="black" cx="68.8" cy="-165.6" rx="1.8" ry="1.8"/>
</g>
<!-- 0x1f71c20&#45;&gt;0x1f71d10 -->
<g id="edge5" class="edge"><title>0x1f71c20&#45;&gt;0x1f71d10</title>
<path fill="none" stroke="black" d="M109.711,-218.626C105.948,-216.597 93.3209,-209.402 85.8,-200.4 79.9776,-193.431 75.486,-184.132 72.5858,-177.051"/>
<polygon fill="black" stroke="black" points="69.0883,-167.523 76.7586,-175.36 70.8112,-172.217 72.5342,-176.911 72.5342,-176.911 72.5342,-176.911 70.8112,-172.217 68.3098,-178.461 69.0883,-167.523 69.0883,-167.523"/>
<text text-anchor="middle" x="91.3" y="-189.2" font-family="Times,serif" font-size="14.00"> n</text>
</g>
<!-- 0x1f72010&#45;&gt;0x7ffd05de1080 -->
<g id="edge6" class="edge"><title>0x1f72010&#45;&gt;0x7ffd05de1080</title>
<path fill="none" stroke="#2bbef0" stroke-dasharray="5,2" d="M1.70446,-222.196C1.33214,-226.69 0.428577,-245.272 9.8,-255 24.634,-270.398 50.8556,-273.538 66.0374,-273.978"/>
<polygon fill="#2bbef0" stroke="#2bbef0" points="76.2329,-273.896 66.2692,-278.476 71.233,-273.936 66.2332,-273.976 66.2332,-273.976 66.2332,-273.976 71.233,-273.936 66.1972,-269.476 76.2329,-273.896 76.2329,-273.896"/>
</g>
<!-- 0x1f72100 -->
<g id="node5" class="node"><title>0x1f72100</title>
<ellipse fill="black" stroke="black" cx="7.8" cy="-165.6" rx="1.8" ry="1.8"/>
</g>
<!-- 0x1f72010&#45;&gt;0x1f72100 -->
<g id="edge7" class="edge"><title>0x1f72010&#45;&gt;0x1f72100</title>
<path fill="none" stroke="black" d="M1.75405,-218.358C1.56013,-214.531 0.903037,-198.413 2.8,-185.4 3.18001,-182.793 3.79263,-180.03 4.46082,-177.447"/>
<polygon fill="black" stroke="black" points="7.44545,-167.602 8.85063,-178.477 5.99481,-172.387 4.54417,-177.172 4.54417,-177.172 4.54417,-177.172 5.99481,-172.387 0.237713,-175.866 7.44545,-167.602 7.44545,-167.602"/>
<text text-anchor="middle" x="7.8" y="-189.2" font-family="Times,serif" font-size="14.00"> a</text>
</g>
<!-- 0x1f71d10&#45;&gt;0x7ffd05de1080 -->
<g id="edge8" class="edge"><title>0x1f71d10&#45;&gt;0x7ffd05de1080</title>
<path fill="none" stroke="#2bbef0" stroke-dasharray="5,2" d="M68.8891,-167.661C69.622,-176.391 74.6839,-236.684 76.8356,-262.313"/>
<polygon fill="#2bbef0" stroke="#2bbef0" points="77.6989,-272.596 72.378,-263.008 77.2806,-267.614 76.8622,-262.631 76.8622,-262.631 76.8622,-262.631 77.2806,-267.614 81.3465,-262.255 77.6989,-272.596 77.6989,-272.596"/>
</g>
<!-- 0x1f725a0 -->
<g id="node6" class="node"><title>0x1f725a0</title>
<ellipse fill="black" stroke="black" cx="69.8" cy="-111" rx="1.8" ry="1.8"/>
</g>
<!-- 0x1f71d10&#45;&gt;0x1f725a0 -->
<g id="edge9" class="edge"><title>0x1f71d10&#45;&gt;0x1f725a0</title>
<path fill="none" stroke="black" d="M68.7244,-163.763C68.3915,-159.961 67.1035,-143.932 67.8,-130.8 67.93,-128.35 68.1545,-125.728 68.4074,-123.243"/>
<polygon fill="black" stroke="black" points="69.6536,-113.016 72.9109,-123.487 69.0488,-117.979 68.4439,-122.942 68.4439,-122.942 68.4439,-122.942 69.0488,-117.979 63.977,-122.398 69.6536,-113.016 69.6536,-113.016"/>
<text text-anchor="middle" x="73.8" y="-134.6" font-family="Times,serif" font-size="14.00"> a</text>
</g>
<!-- 0x1f71e00 -->
<g id="node7" class="node"><title>0x1f71e00</title>
<ellipse fill="black" stroke="black" cx="225.8" cy="-111" rx="1.8" ry="1.8"/>
</g>
<!-- 0x1f71d10&#45;&gt;0x1f71e00 -->
<g id="edge10" class="edge"><title>0x1f71d10&#45;&gt;0x1f71e00</title>
<path fill="none" stroke="black" d="M70.3423,-164.162C77.3485,-162.164 106.869,-153.681 130.8,-145.8 161.54,-135.677 197.426,-122.548 214.994,-116.033"/>
<polygon fill="black" stroke="black" points="224.469,-112.501 216.671,-120.211 219.784,-114.247 215.099,-115.994 215.099,-115.994 215.099,-115.994 219.784,-114.247 213.527,-111.778 224.469,-112.501 224.469,-112.501"/>
<text text-anchor="middle" x="181.3" y="-134.6" font-family="Times,serif" font-size="14.00"> n</text>
</g>
<!-- 0x1f72100&#45;&gt;0x1f71c20 -->
<g id="edge11" class="edge"><title>0x1f72100&#45;&gt;0x1f71c20</title>
<path fill="none" stroke="#2bbef0" stroke-dasharray="5,2" d="M9.0345,-167.254C15.5838,-170.719 46.9377,-187.28 72.8,-200.4 82.1641,-205.15 92.892,-210.444 100.556,-214.201"/>
<polygon fill="#2bbef0" stroke="#2bbef0" points="109.614,-218.624 98.6532,-218.28 105.121,-216.43 100.628,-214.236 100.628,-214.236 100.628,-214.236 105.121,-216.43 102.602,-210.192 109.614,-218.624 109.614,-218.624"/>
</g>
<!-- 0x1f721f0 -->
<g id="node8" class="node"><title>0x1f721f0</title>
<ellipse fill="#ee3333" stroke="#ee3333" cx="19.8" cy="-111" rx="1.8" ry="1.8"/>
</g>
<!-- 0x1f72100&#45;&gt;0x1f721f0 -->
<g id="edge12" class="edge"><title>0x1f72100&#45;&gt;0x1f721f0</title>
<path fill="none" stroke="black" d="M7.67292,-163.74C7.12746,-159.838 5.17236,-143.44 8.8,-130.8 9.7493,-127.492 11.4136,-124.161 13.1647,-121.24"/>
<polygon fill="black" stroke="black" points="19.0137,-112.938 16.9332,-123.704 16.1341,-117.025 13.2544,-121.113 13.2544,-121.113 13.2544,-121.113 16.1341,-117.025 9.57567,-118.521 19.0137,-112.938 19.0137,-112.938"/>
<text text-anchor="middle" x="15.3" y="-134.6" font-family="Times,serif" font-size="14.00"> n</text>
</g>
<!-- 0x1f725a0&#45;&gt;0x1f71c20 -->
<g id="edge13" class="edge"><title>0x1f725a0&#45;&gt;0x1f71c20</title>
<path fill="none" stroke="#2bbef0" stroke-dasharray="5,2" d="M70.2498,-113.012C71.493,-115.819 75.0647,-123.948 77.8,-130.8 88.9976,-158.851 101.183,-192.351 107.125,-208.9"/>
<polygon fill="#2bbef0" stroke="#2bbef0" points="110.49,-218.323 102.889,-210.418 108.808,-213.614 107.127,-208.905 107.127,-208.905 107.127,-208.905 108.808,-213.614 111.365,-207.392 110.49,-218.323 110.49,-218.323"/>
</g>
<!-- 0x1f72690 -->
<g id="node9" class="node"><title>0x1f72690</title>
<ellipse fill="#ee3333" stroke="#ee3333" cx="77.8" cy="-56.4" rx="1.8" ry="1.8"/>
</g>
<!-- 0x1f725a0&#45;&gt;0x1f72690 -->
<g id="edge14" class="edge"><title>0x1f725a0&#45;&gt;0x1f72690</title>
<path fill="none" stroke="black" d="M69.9389,-109.087C70.6609,-104.34 74.0331,-82.1676 76.1193,-68.4507"/>
<polygon fill="black" stroke="black" points="77.6311,-58.5108 80.5762,-69.0737 76.8792,-63.4539 76.1274,-68.3971 76.1274,-68.3971 76.1274,-68.3971 76.8792,-63.4539 71.6785,-67.7204 77.6311,-58.5108 77.6311,-58.5108"/>
<text text-anchor="middle" x="80.3" y="-80" font-family="Times,serif" font-size="14.00"> n</text>
</g>
<!-- 0x1f71e00&#45;&gt;0x7ffd05de1080 -->
<g id="edge15" class="edge"><title>0x1f71e00&#45;&gt;0x7ffd05de1080</title>
<path fill="none" stroke="#2bbef0" stroke-dasharray="5,2" d="M225.415,-112.945C222.41,-120.241 202.15,-168.194 175.8,-200.4 152.337,-229.077 143.307,-233.972 112.8,-255 104.894,-260.45 95.2356,-265.532 88.0693,-269.035"/>
<polygon fill="#2bbef0" stroke="#2bbef0" points="78.9405,-273.3 86.0955,-264.99 83.4705,-271.184 88.0004,-269.067 88.0004,-269.067 88.0004,-269.067 83.4705,-271.184 89.9053,-273.144 78.9405,-273.3 78.9405,-273.3"/>
</g>
<!-- 0x1f71ef0 -->
<g id="node10" class="node"><title>0x1f71ef0</title>
<ellipse fill="#ee3333" stroke="#ee3333" cx="195.8" cy="-56.4" rx="1.8" ry="1.8"/>
</g>
<!-- 0x1f71e00&#45;&gt;0x1f71ef0 -->
<g id="edge16" class="edge"><title>0x1f71e00&#45;&gt;0x1f71ef0</title>
<path fill="none" stroke="black" d="M225.279,-109.087C222.468,-104.157 208.939,-80.4375 201.223,-66.9081"/>
<polygon fill="black" stroke="black" points="196.244,-58.1792 205.108,-64.6363 198.722,-62.5225 201.199,-66.8657 201.199,-66.8657 201.199,-66.8657 198.722,-62.5225 197.29,-69.0952 196.244,-58.1792 196.244,-58.1792"/>
<text text-anchor="middle" x="219.8" y="-80" font-family="Times,serif" font-size="14.00"> a</text>
</g>
<!-- 0x1f72780 -->
<g id="node11" class="node"><title>0x1f72780</title>
<ellipse fill="black" stroke="black" cx="245.8" cy="-56.4" rx="1.8" ry="1.8"/>
</g>
<!-- 0x1f71e00&#45;&gt;0x1f72780 -->
<g id="edge17" class="edge"><title>0x1f71e00&#45;&gt;0x1f72780</title>
<path fill="none" stroke="black" d="M226.147,-109.087C227.983,-104.258 236.675,-81.3979 241.865,-67.7489"/>
<polygon fill="black" stroke="black" points="245.504,-58.1792 246.156,-69.1257 243.727,-62.8528 241.95,-67.5264 241.95,-67.5264 241.95,-67.5264 243.727,-62.8528 237.743,-65.927 245.504,-58.1792 245.504,-58.1792"/>
<text text-anchor="middle" x="243.3" y="-80" font-family="Times,serif" font-size="14.00"> n</text>
</g>
<!-- 0x1f721f0&#45;&gt;0x1f71d10 -->
<g id="edge18" class="edge"><title>0x1f721f0&#45;&gt;0x1f71d10</title>
<path fill="none" stroke="#2bbef0" stroke-dasharray="5,2" d="M20.5259,-112.779C24.9616,-117.541 48.6333,-142.952 61.1023,-156.337"/>
<polygon fill="#2bbef0" stroke="#2bbef0" points="67.9495,-163.687 57.8406,-159.437 64.5414,-160.029 61.1332,-156.37 61.1332,-156.37 61.1332,-156.37 64.5414,-160.029 64.4259,-153.303 67.9495,-163.687 67.9495,-163.687"/>
</g>
<!-- 0x1f722e0 -->
<g id="node12" class="node"><title>0x1f722e0</title>
<ellipse fill="black" stroke="black" cx="44.8" cy="-56.4" rx="1.8" ry="1.8"/>
</g>
<!-- 0x1f721f0&#45;&gt;0x1f722e0 -->
<g id="edge19" class="edge"><title>0x1f721f0&#45;&gt;0x1f722e0</title>
<path fill="none" stroke="black" d="M19.5649,-109.098C18.5515,-105.012 14.8686,-87.9365 20.8,-76.2 23.7812,-70.3011 29.5646,-65.6838 34.707,-62.5013"/>
<polygon fill="black" stroke="black" points="43.603,-57.8862 36.7987,-66.4858 39.1647,-60.1888 34.7264,-62.4913 34.7264,-62.4913 34.7264,-62.4913 39.1647,-60.1888 32.6541,-58.4969 43.603,-57.8862 43.603,-57.8862"/>
<text text-anchor="middle" x="25.8" y="-80" font-family="Times,serif" font-size="14.00"> a</text>
</g>
<!-- 0x1f72690&#45;&gt;0x1f71d10 -->
<g id="edge20" class="edge"><title>0x1f72690&#45;&gt;0x1f71d10</title>
<path fill="none" stroke="#2bbef0" stroke-dasharray="5,2" d="M78.6694,-58.3196C81.0317,-60.8898 87.5429,-68.4688 89.8,-76.2 91.6683,-82.5995 90.2247,-84.5469 89.8,-91.2 88.2413,-115.616 91.9609,-123.115 82.8,-145.8 81.3143,-149.479 78.9295,-153.083 76.546,-156.135"/>
<polygon fill="#2bbef0" stroke="#2bbef0" points="69.7577,-163.693 73.0919,-153.246 73.0988,-159.973 76.4398,-156.253 76.4398,-156.253 76.4398,-156.253 73.0988,-159.973 79.7877,-159.26 69.7577,-163.693 69.7577,-163.693"/>
</g>
<!-- 0x1f71ef0&#45;&gt;0x1f71c20 -->
<g id="edge21" class="edge"><title>0x1f71ef0&#45;&gt;0x1f71c20</title>
<path fill="none" stroke="#2bbef0" stroke-dasharray="5,2" d="M195.831,-58.4627C196.078,-68.922 196.778,-154.045 155.8,-200.4 147.222,-210.104 132.828,-214.923 122.632,-217.231"/>
<polygon fill="#2bbef0" stroke="#2bbef0" points="112.487,-219.017 121.556,-212.851 117.412,-218.15 122.336,-217.283 122.336,-217.283 122.336,-217.283 117.412,-218.15 123.116,-221.715 112.487,-219.017 112.487,-219.017"/>
</g>
<!-- 0x1f72780&#45;&gt;0x7ffd05de1080 -->
<g id="edge22" class="edge"><title>0x1f72780&#45;&gt;0x7ffd05de1080</title>
<path fill="none" stroke="#2bbef0" stroke-dasharray="5,2" d="M246.566,-58.0518C251.34,-62.1892 276.8,-85.4082 276.8,-110 276.8,-221.2 276.8,-221.2 276.8,-221.2 276.8,-260.132 132.633,-270.897 89.7147,-273.238"/>
<polygon fill="#2bbef0" stroke="#2bbef0" points="79.5204,-273.733 89.2904,-268.754 84.5145,-273.491 89.5086,-273.248 89.5086,-273.248 89.5086,-273.248 84.5145,-273.491 89.7268,-277.743 79.5204,-273.733 79.5204,-273.733"/>
</g>
<!-- 0x1f72870 -->
<g id="node13" class="node"><title>0x1f72870</title>
<ellipse fill="#ee3333" stroke="#ee3333" cx="175.8" cy="-1.8" rx="1.8" ry="1.8"/>
</g>
<!-- 0x1f72780&#45;&gt;0x1f72870 -->
<g id="edge23" class="edge"><title>0x1f72780&#45;&gt;0x1f72870</title>
<path fill="none" stroke="black" d="M244.81,-54.6564C238.376,-49.8217 202.208,-22.6437 184.957,-9.68049"/>
<polygon fill="black" stroke="black" points="176.854,-3.59215 187.552,-6.00195 180.851,-6.59582 184.849,-9.59949 184.849,-9.59949 184.849,-9.59949 180.851,-6.59582 182.145,-13.197 176.854,-3.59215 176.854,-3.59215"/>
<text text-anchor="middle" x="224.8" y="-25.4" font-family="Times,serif" font-size="14.00"> a</text>
</g>
<!-- 0x1f722e0&#45;&gt;0x1f725a0 -->
<g id="edge24" class="edge"><title>0x1f722e0&#45;&gt;0x1f725a0</title>
<path fill="none" stroke="#2bbef0" stroke-dasharray="5,2" d="M45.1704,-58.1792C47.3225,-62.7074 58.3504,-85.9101 64.8977,-99.6855"/>
<polygon fill="#2bbef0" stroke="#2bbef0" points="69.3661,-109.087 61.0091,-101.987 67.2197,-104.571 65.0734,-100.055 65.0734,-100.055 65.0734,-100.055 67.2197,-104.571 69.1377,-98.1235 69.3661,-109.087 69.3661,-109.087"/>
</g>
<!-- 0x1f723d0 -->
<g id="node14" class="node"><title>0x1f723d0</title>
<ellipse fill="#ee3333" stroke="#ee3333" cx="61.8" cy="-1.8" rx="1.8" ry="1.8"/>
</g>
<!-- 0x1f722e0&#45;&gt;0x1f723d0 -->
<g id="edge25" class="edge"><title>0x1f722e0&#45;&gt;0x1f723d0</title>
<path fill="none" stroke="black" d="M44.9329,-54.5447C45.5506,-50.6623 48.3024,-34.3369 52.8,-21.6 53.8181,-18.7167 55.1447,-15.6886 56.4651,-12.9253"/>
<polygon fill="black" stroke="black" points="61.2338,-3.78642 60.5972,-14.7338 58.9207,-8.21926 56.6077,-12.6521 56.6077,-12.6521 56.6077,-12.6521 58.9207,-8.21926 52.6181,-10.5704 61.2338,-3.78642 61.2338,-3.78642"/>
<text text-anchor="middle" x="59.3" y="-25.4" font-family="Times,serif" font-size="14.00"> n</text>
</g>
<!-- 0x1f72870&#45;&gt;0x1f71c20 -->
<g id="edge26" class="edge"><title>0x1f72870&#45;&gt;0x1f71c20</title>
<path fill="none" stroke="#2bbef0" stroke-dasharray="5,2" d="M174.96,-3.43507C169.724,-7.47018 141.8,-30.1732 141.8,-55.4 141.8,-166.6 141.8,-166.6 141.8,-166.6 141.8,-184.66 128.069,-201.979 118.884,-211.544"/>
<polygon fill="#2bbef0" stroke="#2bbef0" points="111.566,-218.548 115.679,-208.383 115.178,-215.091 118.791,-211.634 118.791,-211.634 118.791,-211.634 115.178,-215.091 121.902,-214.885 111.566,-218.548 111.566,-218.548"/>
</g>
<!-- 0x1f723d0&#45;&gt;0x1f72690 -->
<g id="edge27" class="edge"><title>0x1f723d0&#45;&gt;0x1f72690</title>
<path fill="none" stroke="#2bbef0" stroke-dasharray="5,2" d="M62.1379,-3.91076C63.721,-9.11532 70.5001,-31.4016 74.603,-44.8899"/>
<polygon fill="#2bbef0" stroke="#2bbef0" points="77.5223,-54.487 70.3068,-46.2295 76.0672,-49.7034 74.6121,-44.9198 74.6121,-44.9198 74.6121,-44.9198 76.0672,-49.7034 78.9173,-43.6102 77.5223,-54.487 77.5223,-54.487"/>
</g>
</g>
</svg>
