<?xml version="1.0" encoding="UTF-8" standalone="no"?>
<!DOCTYPE svg PUBLIC "-//W3C//DTD SVG 1.1//EN"
 "http://www.w3.org/Graphics/SVG/1.1/DTD/svg11.dtd">
<!-- Generated by graphviz version 2.38.0 (20140413.2041)
 -->
<!-- Title: trie Pages: 1 -->
<svg width="122pt" height="285pt"
 viewBox="0.00 0.00 121.80 284.60" xmlns="http://www.w3.org/2000/svg" xmlns:xlink="http://www.w3.org/1999/xlink">
<g id="graph0" class="graph" transform="scale(1 1) rotate(0) translate(4 280.6)">
<title>trie</title>
<polygon fill="white" stroke="none" points="-4,4 -4,-280.6 117.8,-280.6 117.8,4 -4,4"/>
<!-- 0x7ffe6c8fae60 -->
<g id="node1" class="node"><title>0x7ffe6c8fae60</title>
<ellipse fill="black" stroke="black" cx="61.8" cy="-274.8" rx="1.8" ry="1.8"/>
</g>
<!-- 0xf92c20 -->
<g id="node2" class="node"><title>0xf92c20</title>
<ellipse fill="black" stroke="black" cx="45.8" cy="-220.2" rx="1.8" ry="1.8"/>
</g>
<!-- 0x7ffe6c8fae60&#45;&gt;0xf92c20 -->
<g id="edge1" class="edge"><title>0x7ffe6c8fae60&#45;&gt;0xf92c20</title>
<path fill="none" stroke="black" d="M60.7311,-272.925C57.8237,-270.469 49.7904,-263.154 46.8,-255 44.1116,-247.669 43.9467,-238.833 44.4089,-232.034"/>
<polygon fill="black" stroke="black" points="45.6307,-222.074 48.8795,-232.547 45.0219,-227.036 44.413,-231.999 44.413,-231.999 44.413,-231.999 45.0219,-227.036 39.9465,-231.451 45.6307,-222.074 45.6307,-222.074"/>
<text text-anchor="middle" x="51.8" y="-243.8" font-family="Times,serif" font-size="14.00"> a</text>
</g>
<!-- 0xf93010 -->
<g id="node3" class="node"><title>0xf93010</title>
<ellipse fill="black" stroke="black" cx="78.8" cy="-220.2" rx="1.8" ry="1.8"/>
</g>
<!-- 0x7ffe6c8fae60&#45;&gt;0xf93010 -->
<g id="edge2" class="edge"><title>0x7ffe6c8fae60&#45;&gt;0xf93010</title>
<path fill="none" stroke="black" d="M62.0951,-272.887C63.6294,-268.14 70.7953,-245.968 75.2285,-232.251"/>
<polygon fill="black" stroke="black" points="78.441,-222.311 79.6476,-233.21 76.9033,-227.068 75.3656,-231.826 75.3656,-231.826 75.3656,-231.826 76.9033,-227.068 71.0837,-230.442 78.441,-222.311 78.441,-222.311"/>
<text text-anchor="middle" x="78.3" y="-243.8" font-family="Times,serif" font-size="14.00"> b</text>
</g>
<!-- 0xf92d10 -->
<g id="node4" class="node"><title>0xf92d10</title>
<ellipse fill="black" stroke="black" cx="43.8" cy="-165.6" rx="1.8" ry="1.8"/>
</g>
<!-- 0xf92c20&#45;&gt;0xf92d10 -->
<g id="edge3" class="edge"><title>0xf92c20&#45;&gt;0xf92d10</title>
<path fill="none" stroke="black" d="M45.7653,-218.287C45.5867,-213.589 44.7592,-191.828 44.2366,-178.082"/>
<polygon fill="black" stroke="black" points="43.8422,-167.711 48.719,-177.533 44.0323,-172.707 44.2223,-177.704 44.2223,-177.704 44.2223,-177.704 44.0323,-172.707 39.7255,-177.875 43.8422,-167.711 43.8422,-167.711"/>
<text text-anchor="middle" x="51.3" y="-189.2" font-family="Times,serif" font-size="14.00"> n</text>
</g>
<!-- 0xf93100 -->
<g id="node5" class="node"><title>0xf93100</title>
<ellipse fill="black" stroke="black" cx="81.8" cy="-165.6" rx="1.8" ry="1.8"/>
</g>
<!-- 0xf93010&#45;&gt;0xf93100 -->
<g id="edge4" class="edge"><title>0xf93010&#45;&gt;0xf93100</title>
<path fill="none" stroke="black" d="M78.8521,-218.287C79.12,-213.589 80.3612,-191.828 81.1451,-178.082"/>
<polygon fill="black" stroke="black" points="81.7366,-167.711 85.6598,-177.951 81.4519,-172.703 81.1671,-177.695 81.1671,-177.695 81.1671,-177.695 81.4519,-172.703 76.6744,-177.438 81.7366,-167.711 81.7366,-167.711"/>
<text text-anchor="middle" x="85.8" y="-189.2" font-family="Times,serif" font-size="14.00"> a</text>
</g>
<!-- 0xf935a0 -->
<g id="node6" class="node"><title>0xf935a0</title>
<ellipse fill="black" stroke="black" cx="4.8" cy="-111" rx="1.8" ry="1.8"/>
</g>
<!-- 0xf92d10&#45;&gt;0xf935a0 -->
<g id="edge5" class="edge"><title>0xf92d10&#45;&gt;0xf935a0</title>
<path fill="none" stroke="black" d="M43.04,-163.582C40.9339,-160.76 34.8445,-152.597 29.8,-145.8 23.558,-137.389 16.4586,-127.788 11.4243,-120.973"/>
<polygon fill="black" stroke="black" points="5.41749,-112.837 14.9775,-118.209 8.38738,-116.859 11.3573,-120.882 11.3573,-120.882 11.3573,-120.882 8.38738,-116.859 7.73708,-123.555 5.41749,-112.837 5.41749,-112.837"/>
<text text-anchor="middle" x="34.8" y="-134.6" font-family="Times,serif" font-size="14.00"> a</text>
</g>
<!-- 0xf92e00 -->
<g id="node7" class="node"><title>0xf92e00</title>
<ellipse fill="black" stroke="black" cx="43.8" cy="-111" rx="1.8" ry="1.8"/>
</g>
<!-- 0xf92d10&#45;&gt;0xf92e00 -->
<g id="edge6" class="edge"><title>0xf92d10&#45;&gt;0xf92e00</title>
<path fill="none" stroke="black" d="M43.8,-163.687C43.8,-158.989 43.8,-137.228 43.8,-123.482"/>
<polygon fill="black" stroke="black" points="43.8,-113.111 48.3001,-123.111 43.8,-118.111 43.8001,-123.111 43.8001,-123.111 43.8001,-123.111 43.8,-118.111 39.3001,-123.111 43.8,-113.111 43.8,-113.111"/>
<text text-anchor="middle" x="49.3" y="-134.6" font-family="Times,serif" font-size="14.00"> n</text>
</g>
<!-- 0xf931f0 -->
<g id="node8" class="node"><title>0xf931f0</title>
<ellipse fill="#ee3333" stroke="#ee3333" cx="101.8" cy="-111" rx="1.8" ry="1.8"/>
</g>
<!-- 0xf93100&#45;&gt;0xf931f0 -->
<g id="edge7" class="edge"><title>0xf93100&#45;&gt;0xf931f0</title>
<path fill="none" stroke="black" d="M82.1471,-163.687C83.9834,-158.858 92.6753,-135.998 97.8651,-122.349"/>
<polygon fill="black" stroke="black" points="101.504,-112.779 102.156,-123.726 99.7267,-117.453 97.9496,-122.126 97.9496,-122.126 97.9496,-122.126 99.7267,-117.453 93.7434,-120.527 101.504,-112.779 101.504,-112.779"/>
<text text-anchor="middle" x="100.3" y="-134.6" font-family="Times,serif" font-size="14.00"> n</text>
</g>
<!-- 0xf93690 -->
<g id="node9" class="node"><title>0xf93690</title>
<ellipse fill="#ee3333" stroke="#ee3333" cx="1.8" cy="-56.4" rx="1.8" ry="1.8"/>
</g>
<!-- 0xf935a0&#45;&gt;0xf93690 -->
<g id="edge8" class="edge"><title>0xf935a0&#45;&gt;0xf93690</title>
<path fill="none" stroke="black" d="M4.6642,-108.983C4.29371,-106.165 3.2624,-98.0115 2.8,-91.2 2.28509,-83.615 2.03523,-75.0547 1.91403,-68.4467"/>
<polygon fill="black" stroke="black" points="1.80122,-58.2373 6.41153,-68.187 1.85651,-63.237 1.91181,-68.2367 1.91181,-68.2367 1.91181,-68.2367 1.85651,-63.237 -2.58792,-68.2865 1.80122,-58.2373 1.80122,-58.2373"/>
<text text-anchor="middle" x="8.3" y="-80" font-family="Times,serif" font-size="14.00"> n</text>
</g>
<!-- 0xf92ef0 -->
<g id="node10" class="node"><title>0xf92ef0</title>
<ellipse fill="#ee3333" stroke="#ee3333" cx="35.8" cy="-56.4" rx="1.8" ry="1.8"/>
</g>
<!-- 0xf92e00&#45;&gt;0xf92ef0 -->
<g id="edge9" class="edge"><title>0xf92e00&#45;&gt;0xf92ef0</title>
<path fill="none" stroke="black" d="M43.3006,-109.015C41.9422,-106.277 38.1895,-98.3097 36.8,-91.2 35.3221,-83.6379 35.0967,-74.9453 35.2281,-68.2692"/>
<polygon fill="black" stroke="black" points="35.7247,-58.2474 39.7242,-68.4579 35.4772,-63.2412 35.2297,-68.2351 35.2297,-68.2351 35.2297,-68.2351 35.4772,-63.2412 30.7352,-68.0123 35.7247,-58.2474 35.7247,-58.2474"/>
<text text-anchor="middle" x="41.8" y="-80" font-family="Times,serif" font-size="14.00"> a</text>
</g>
<!-- 0xf93780 -->
<g id="node11" class="node"><title>0xf93780</title>
<ellipse fill="black" stroke="black" cx="68.8" cy="-56.4" rx="1.8" ry="1.8"/>
</g>
<!-- 0xf92e00&#45;&gt;0xf93780 -->
<g id="edge10" class="edge"><title>0xf92e00&#45;&gt;0xf93780</title>
<path fill="none" stroke="black" d="M44.2339,-109.087C46.5531,-104.207 57.6215,-80.9196 64.0826,-67.3254"/>
<polygon fill="black" stroke="black" points="68.4296,-58.1792 68.2012,-69.1427 66.2833,-62.6951 64.1369,-67.211 64.1369,-67.211 64.1369,-67.211 66.2833,-62.6951 60.0726,-65.2793 68.4296,-58.1792 68.4296,-58.1792"/>
<text text-anchor="middle" x="65.3" y="-80" font-family="Times,serif" font-size="14.00"> n</text>
</g>
<!-- 0xf932e0 -->
<g id="node12" class="node"><title>0xf932e0</title>
<ellipse fill="black" stroke="black" cx="102.8" cy="-56.4" rx="1.8" ry="1.8"/>
</g>
<!-- 0xf931f0&#45;&gt;0xf932e0 -->
<g id="edge11" class="edge"><title>0xf931f0&#45;&gt;0xf932e0</title>
<path fill="none" stroke="black" d="M101.817,-109.087C101.907,-104.389 102.32,-82.6276 102.582,-68.8821"/>
<polygon fill="black" stroke="black" points="102.779,-58.5108 107.088,-68.5945 102.684,-63.5099 102.589,-68.509 102.589,-68.509 102.589,-68.509 102.684,-63.5099 98.0895,-68.4234 102.779,-58.5108 102.779,-58.5108"/>
<text text-anchor="middle" x="107.8" y="-80" font-family="Times,serif" font-size="14.00"> a</text>
</g>
<!-- 0xf93870 -->
<g id="node13" class="node"><title>0xf93870</title>
<ellipse fill="#ee3333" stroke="#ee3333" cx="68.8" cy="-1.8" rx="1.8" ry="1.8"/>
</g>
<!-- 0xf93780&#45;&gt;0xf93870 -->
<g id="edge12" class="edge"><title>0xf93780&#45;&gt;0xf93870</title>
<path fill="none" stroke="black" d="M68.8,-54.487C68.8,-49.789 68.8,-28.0276 68.8,-14.2821"/>
<polygon fill="black" stroke="black" points="68.8,-3.91076 73.3001,-13.9107 68.8,-8.91076 68.8001,-13.9108 68.8001,-13.9108 68.8001,-13.9108 68.8,-8.91076 64.3001,-13.9108 68.8,-3.91076 68.8,-3.91076"/>
<text text-anchor="middle" x="73.8" y="-25.4" font-family="Times,serif" font-size="14.00"> a</text>
</g>
<!-- 0xf933d0 -->
<g id="node14" class="node"><title>0xf933d0</title>
<ellipse fill="#ee3333" stroke="#ee3333" cx="102.8" cy="-1.8" rx="1.8" ry="1.8"/>
</g>
<!-- 0xf932e0&#45;&gt;0xf933d0 -->
<g id="edge13" class="edge"><title>0xf932e0&#45;&gt;0xf933d0</title>
<path fill="none" stroke="black" d="M102.8,-54.487C102.8,-49.789 102.8,-28.0276 102.8,-14.2821"/>
<polygon fill="black" stroke="black" points="102.8,-3.91076 107.3,-13.9107 102.8,-8.91076 102.8,-13.9108 102.8,-13.9108 102.8,-13.9108 102.8,-8.91076 98.3001,-13.9108 102.8,-3.91076 102.8,-3.91076"/>
<text text-anchor="middle" x="108.3" y="-25.4" font-family="Times,serif" font-size="14.00"> n</text>
</g>
</g>
</svg>
